<?xml version="1.0" encoding="UTF-8" standalone="no"?>
<!-- Created with Inkscape (http://www.inkscape.org/) -->

<svg
   width="98.267685mm"
   height="32.755913mm"
   viewBox="0 0 98.267686 32.755912"
   version="1.1"
   id="svg5"
   inkscape:version="1.1 (c68e22c387, 2021-05-23)"
   sodipodi:docname="logo.png.svg"
   xmlns:inkscape="http://www.inkscape.org/namespaces/inkscape"
   xmlns:sodipodi="http://sodipodi.sourceforge.net/DTD/sodipodi-0.dtd"
   xmlns="http://www.w3.org/2000/svg"
   xmlns:svg="http://www.w3.org/2000/svg">
  <sodipodi:namedview
     id="namedview7"
     pagecolor="#ffffff"
     bordercolor="#999999"
     borderopacity="1"
     inkscape:pageshadow="0"
     inkscape:pageopacity="0"
     inkscape:pagecheckerboard="0"
     inkscape:document-units="mm"
     showgrid="false"
     fit-margin-top="0"
     fit-margin-left="0"
     fit-margin-right="0"
     fit-margin-bottom="0"
     inkscape:zoom="1.3211411"
     inkscape:cx="110.13206"
     inkscape:cy="247.13484"
     inkscape:window-width="1920"
     inkscape:window-height="1015"
     inkscape:window-x="1366"
     inkscape:window-y="40"
     inkscape:window-maximized="1"
     inkscape:current-layer="g129" />
  <defs
     id="defs2" />
  <g
     inkscape:label="Layer 1"
     inkscape:groupmode="layer"
     id="layer1"
     transform="translate(-90.55686,-235.54022)">
    <g
       id="g129"
       transform="matrix(2.4033625,0,0,2.4033625,-127.02961,-376.47272)">
      <path
         style="fill:#d3d7ee;stroke-width:0.524198"
         d="m 96.849887,264.71437 c -3.3821,-3.38209 -1.331895,-8.49314 3.406883,-8.49314 1.85869,0 2.47224,0.27503 3.59791,1.61281 2.77538,3.29834 1.08767,7.60711 -3.20516,8.18293 -1.951735,0.26177 -2.383161,0.11395 -3.799633,-1.3026 z m 4.521093,-2.3575 c 0.57283,0.21981 0.69137,-0.0675 0.50343,-1.22042 -0.1352,-0.82937 -0.26522,-1.68485 -0.28892,-1.90109 -0.097,-0.8843 -1.48449,-0.3073 -2.120983,0.88201 -0.789284,1.47477 -0.332223,3.44143 0.586333,2.52287 0.31399,-0.31399 0.90806,-0.44152 1.32014,-0.28337 z m -1.390685,-1.69263 c 0.364695,-0.43941 0.771035,-0.69101 0.902975,-0.55906 0.36353,0.36354 -0.37509,1.35803 -1.008611,1.35803 -0.347592,0 -0.307826,-0.30076 0.105636,-0.79897 z m 20.402015,3.71974 c 0.48527,-0.58471 0.43346,-1.11197 -0.23656,-2.40764 -0.47182,-0.9124 -0.73139,-1.78545 -0.57676,-1.94007 0.15446,-0.15482 0.56961,0.35201 0.92218,1.12584 l 0.64106,1.40697 0.6705,-1.20818 c 0.41918,-0.75535 0.6767,-0.91346 0.68711,-0.42188 0.018,0.87876 -1.87444,4.1936 -2.39484,4.1936 -0.18366,0 -0.0545,-0.33688 0.28731,-0.74864 z m -9.39631,-1.73132 c -0.007,-1.94838 0.1559,-2.25901 1.34085,-2.55642 1.64588,-0.41308 2.46775,0.30868 2.23387,1.96178 -0.12188,0.86156 -0.57533,1.29602 -1.48595,1.42378 -0.72077,0.10118 -1.48379,0.45499 -1.6956,0.78632 -0.21183,0.33131 -0.38874,-0.39563 -0.39317,-1.61546 z m 3.03885,-0.8039 c 0.20862,-1.08329 -1.30463,-1.81326 -2.10332,-1.01458 -0.79866,0.79866 -0.0688,2.31192 1.0146,2.10329 0.5021,-0.0967 0.99201,-0.58661 1.08872,-1.08871 z m 1.38369,0.81807 c 0.13952,-2.08833 1.18813,-3.14614 2.58676,-2.60942 1.98144,0.76033 1.36204,3.50261 -0.79112,3.50261 -0.5413,0 -0.98421,0.23589 -0.98421,0.52419 0,0.28832 -0.21176,0.5242 -0.47057,0.5242 -0.25882,0 -0.4122,-0.87373 -0.34086,-1.94158 z m 3.08308,-0.379 c 0.34246,-0.89242 -0.94574,-2.10639 -1.72449,-1.6251 -0.30093,0.18605 -0.54716,0.79601 -0.54716,1.35563 0,1.20132 1.83076,1.41849 2.27165,0.26947 z m -11.98789,0.16526 c -0.21864,-0.68887 -0.0561,-1.40206 0.43042,-1.88858 1.24564,-1.24564 2.99543,-0.39387 2.99543,1.45815 0,1.35077 -0.18645,1.53727 -1.53727,1.53727 -1.10396,0 -1.63631,-0.31199 -1.88858,-1.10684 z m 2.80332,-0.60442 c 0.20863,-1.08329 -1.30463,-1.81324 -2.10331,-1.01458 -0.79868,0.79868 -0.0687,2.31194 1.01458,2.10331 0.50211,-0.0967 0.99204,-0.58661 1.08873,-1.08873 z"
         id="path133" />
      <path
         style="fill:none;stroke-width:0.524198"
         d="m 90.534187,261.46321 v -6.81459 h 20.443803 20.44378 v 6.81459 6.81461 H 110.97799 90.534187 Z m 13.497323,2.8863 c 1.61886,-1.88205 1.54877,-4.46473 -0.17682,-6.51547 -1.12567,-1.33778 -1.73922,-1.61281 -3.59791,-1.61281 -4.738776,0 -6.788981,5.11105 -3.40688,8.49314 1.416471,1.41648 1.847897,1.56437 3.79963,1.3026 1.48188,-0.19878 2.58761,-0.74394 3.38199,-1.66746 z m -4.900497,-2.04771 c -0.423023,-1.10238 0.744576,-3.45957 1.713647,-3.45957 0.38375,0 0.71712,0.17696 0.74083,0.39313 0.0237,0.21624 0.15372,1.07172 0.28892,1.90109 0.18794,1.15288 0.0694,1.44023 -0.50343,1.22042 -0.41208,-0.15806 -1.00615,-0.0306 -1.32014,0.28337 -0.411719,0.41171 -0.668176,0.31738 -0.919827,-0.33844 z m 1.646627,-1.39765 c 0.56418,-0.91287 -0.0784,-1.10621 -0.797345,-0.23991 -0.413462,0.49821 -0.453228,0.79897 -0.105636,0.79897 0.306601,0 0.712931,-0.25158 0.902981,-0.55906 z m 20.69007,2.52482 c 0.5713,-0.93701 1.03127,-2.05748 1.02213,-2.48995 -0.009,-0.49158 -0.26793,-0.33347 -0.68711,0.42188 l -0.6705,1.20818 -0.64106,-1.40697 c -0.35257,-0.77383 -0.76755,-1.28048 -0.92218,-1.12584 -0.15463,0.15446 0.10496,1.02767 0.57676,1.94007 0.67002,1.29567 0.72183,1.82293 0.23656,2.40764 -0.34171,0.41176 -0.47102,0.74864 -0.28731,0.74864 0.18366,0 0.80142,-0.76666 1.37271,-1.70365 z m -8.39294,0.0529 c 0.91062,-0.12781 1.36404,-0.56222 1.48595,-1.42378 0.23388,-1.6531 -0.58799,-2.37486 -2.23387,-1.96177 -1.18497,0.2974 -1.34791,0.60804 -1.34085,2.55641 0.004,1.21983 0.18128,1.94679 0.39317,1.61546 0.21181,-0.33133 0.97483,-0.68514 1.6956,-0.78632 z m -1.38168,-1.22877 c -0.18148,-0.47315 -0.0787,-1.11163 0.22844,-1.41885 0.79869,-0.79868 2.31194,-0.0688 2.10332,1.01458 -0.23237,1.20665 -1.9121,1.49787 -2.33176,0.40427 z m 4.52688,1.8312 c 0,-0.28832 0.44291,-0.52421 0.98421,-0.52421 1.26373,0 2.36797,-1.32553 1.96942,-2.36411 -0.41742,-1.08779 -1.86988,-1.58433 -2.84155,-0.97141 -0.85324,0.53821 -1.36436,4.38391 -0.58265,4.38391 0.25881,0 0.47057,-0.23588 0.47057,-0.52418 z m 0,-2.06587 c 0,-1.32163 0.89879,-1.85607 1.82651,-1.08614 0.95444,0.79213 0.4344,2.1036 -0.8342,2.1036 -0.63277,0 -0.99231,-0.36863 -0.99231,-1.01746 z m -6.29039,0.004 c 0,-1.85204 -1.74979,-2.70379 -2.99543,-1.45817 -1.24565,1.24565 -0.39387,2.99544 1.45816,2.99544 1.35075,0 1.53727,-0.18643 1.53727,-1.53727 z m -2.95429,0.2303 c -0.18156,-0.47319 -0.0788,-1.11165 0.22845,-1.41887 0.79868,-0.79868 2.31194,-0.0688 2.10331,1.01458 -0.23239,1.20664 -1.91211,1.49786 -2.33176,0.40427 z"
         id="path131" />
      <path
         style="fill:#6f76cd;fill-opacity:1;stroke:none;stroke-width:0.145923;stroke-linejoin:round"
         d="M 99.363562,262.74005 C 99.16,262.53533 99.050893,262.089 99.07998,261.57995 c 0.03878,-0.67848 0.264072,-1.3267 0.635043,-1.82712 0.588577,-0.79395 1.527787,-1.18305 1.783907,-0.73904 0.0316,0.0547 0.0798,0.28168 0.12394,0.58368 0.0397,0.27174 0.12517,0.82896 0.18985,1.23828 0.19172,1.21332 0.15624,1.57597 -0.15422,1.57597 -0.0395,0 -0.16184,-0.0286 -0.27188,-0.0637 -0.47193,-0.15032 -1.00205,-0.0348 -1.36561,0.29768 -0.159338,0.14564 -0.281104,0.20376 -0.427004,0.20376 -0.10173,0 -0.139409,-0.018 -0.230449,-0.10945 z m 0.900598,-1.37969 c 0.33118,-0.1766 0.64293,-0.56451 0.70982,-0.88341 0.0298,-0.14222 0.0278,-0.17895 -0.0148,-0.26829 -0.12074,-0.25322 -0.36587,-0.17444 -0.79495,0.25549 -0.489995,0.49095 -0.66111,0.8691 -0.443517,0.98012 0.108733,0.0555 0.352597,0.018 0.543487,-0.0839 z"
         id="path33389" />
    </g>
    <path
       style="fill:#6f76cd;fill-opacity:1;stroke:none;stroke-width:0.350705;stroke-linejoin:round"
       d="m 140.17075,258.50305 c -0.26291,-0.59436 -0.34696,-1.35686 -0.38775,-3.51747 -0.085,-4.49885 0.27485,-5.40467 2.42731,-6.11127 1.44341,-0.47385 3.0431,-0.59776 3.96988,-0.30751 1.6167,0.50631 2.36066,2.00119 2.13518,4.29035 -0.22738,2.3087 -1.16515,3.40975 -3.23984,3.80398 -2.19628,0.41732 -3.47308,0.94927 -4.27662,1.78174 -0.20398,0.21131 -0.39651,0.3842 -0.42784,0.3842 -0.0313,0 -0.12151,-0.14582 -0.20032,-0.32402 z m 5.02662,-3.32362 c 0.73702,-0.37542 1.275,-0.91179 1.59756,-1.59278 0.20938,-0.44202 0.22551,-0.52879 0.22551,-1.21257 0,-0.70552 -0.0108,-0.75509 -0.24007,-1.17924 -0.9561,-1.76336 -3.54323,-2.17606 -4.86007,-0.77526 -0.68232,0.72581 -0.91211,1.53768 -0.73245,2.58766 0.22987,1.34328 0.76581,2.00902 1.92558,2.39194 0.2914,0.0961 0.54748,0.12547 0.94347,0.10819 0.47756,-0.0209 0.61592,-0.0607 1.14047,-0.32794 z"
       id="path24393" />
    <path
       style="fill:#6f76cd;fill-opacity:1;stroke:none;stroke-width:0.350705;stroke-linejoin:round"
       d="m 150.92787,259.29853 c -0.3539,-0.37672 -0.57502,-1.5652 -0.57543,-3.09275 -3.5e-4,-1.20735 0.11953,-2.13842 0.45295,-3.51606 0.49975,-2.06539 0.89765,-2.81993 1.98541,-3.76495 0.16328,-0.14186 0.29684,-0.24746 0.29684,-0.23469 0,0.0126 0.1613,-0.0382 0.35864,-0.11306 1.14783,-0.43615 2.75335,-0.23926 3.97659,0.48763 0.41015,0.24371 1.35576,1.06358 1.34755,1.16834 -0.002,0.0207 0.0924,0.22657 0.20892,0.45741 0.43752,0.86671 0.53061,1.85395 0.2716,2.88029 -0.15428,0.61119 -0.33709,0.94084 -0.87991,1.58631 -0.8578,1.02 -2.45986,1.77628 -3.76282,1.77628 -0.56811,0 -1.08465,0.11648 -1.57063,0.35421 -0.52197,0.25533 -0.70682,0.49247 -0.79202,1.01602 -0.0848,0.521 -0.30345,0.85971 -0.65926,1.0213 -0.37506,0.1703 -0.47756,0.16634 -0.65843,-0.0263 z m 4.86021,-3.65301 c 1.10912,-0.29628 1.97811,-1.22062 2.10541,-2.23955 0.0617,-0.49468 -0.0673,-1.1844 -0.31979,-1.70686 -0.26143,-0.54119 -1.05298,-1.30979 -1.64626,-1.59857 -1.19988,-0.58398 -2.02234,-0.52348 -2.68052,0.19723 -0.5858,0.64149 -0.89706,1.46001 -0.97623,2.5673 -0.11,1.53771 0.52539,2.56207 1.73655,2.79995 0.47845,0.094 1.39357,0.0839 1.78084,-0.0195 z"
       id="path24506" />
    <path
       style="fill:#6f76cd;fill-opacity:1;stroke:none;stroke-width:0.350705;stroke-linejoin:round"
       d="m 161.4812,260.67412 c -0.16076,-0.16076 0.1298,-0.78487 0.73699,-1.58253 1.2471,-1.63824 1.19788,-2.48393 -0.32969,-5.66539 -1.12927,-2.35194 -1.58691,-3.61711 -1.60334,-4.43261 -0.0108,-0.51572 0.0789,-0.6156 0.40902,-0.45811 0.56295,0.26844 1.23203,1.37275 2.46597,4.07009 0.62059,1.35655 0.94489,1.99228 0.9847,1.93023 0.0326,-0.051 0.48802,-0.86016 1.01193,-1.79838 1.03125,-1.84671 1.46064,-2.49398 1.75566,-2.64653 0.16364,-0.0846 0.20096,-0.0839 0.27512,0.005 0.26037,0.3137 0.1118,1.30038 -0.38573,2.56195 -0.16652,0.42233 -0.28904,0.76786 -0.27219,0.76786 0.0162,0 -0.002,0.0394 -0.0432,0.0877 -0.0405,0.0482 -0.29059,0.52957 -0.5556,1.06967 -0.26503,0.54008 -0.59434,1.17925 -0.73183,1.42035 -0.13753,0.2411 -0.23465,0.43839 -0.21593,0.43839 0.0187,0 0.001,0.0394 -0.0393,0.0877 -0.0403,0.0482 -0.38979,0.56956 -0.77675,1.15854 -1.00689,1.53261 -1.96616,2.70674 -2.39612,2.9328 -0.21719,0.11413 -0.22677,0.11593 -0.2899,0.0529 z"
       id="path24545" />
    <path
       style="fill:#6f76cd;fill-opacity:1;stroke:none;stroke-width:0.350705;stroke-linejoin:round"
       d="m 132.53907,256.85123 c -0.58042,-0.0828 -1.40411,-0.35925 -1.89657,-0.63636 -0.21218,-0.11935 -0.63829,-0.47216 -0.94692,-0.78392 -0.54895,-0.55457 -0.56492,-0.58053 -0.73646,-1.19813 -0.14114,-0.50809 -0.17498,-0.78867 -0.17354,-1.43788 10e-4,-0.47691 0.0398,-0.92131 0.0947,-1.0872 0.11017,-0.33257 0.51309,-1.24744 0.57144,-1.29761 0.0225,-0.0193 0.12853,-0.15212 0.23599,-0.29504 0.24888,-0.33151 1.01588,-0.95635 1.521,-1.23907 0.47029,-0.26324 1.35163,-0.49997 1.86136,-0.49997 0.96029,0 1.90918,0.40407 2.6214,1.11629 1.12546,1.12546 1.58283,2.68903 1.41054,4.82205 -0.04,0.49522 -0.12278,1.06799 -0.18391,1.27284 -0.14888,0.49871 -0.50446,0.88151 -0.98634,1.0618 -0.69146,0.25871 -2.31813,0.35565 -3.39275,0.2022 z m 0.66759,-1.39927 c 0.17138,-0.0432 0.31162,-0.10819 0.31162,-0.14438 0,-0.0364 0.0319,-0.0463 0.0709,-0.0221 0.10603,0.0655 0.90176,-0.44186 1.26177,-0.80466 0.60526,-0.60993 0.96628,-1.5666 0.88491,-2.34504 -0.19641,-1.87908 -2.61641,-3.15514 -4.34949,-2.29349 -0.53517,0.26609 -1.14708,0.83303 -1.18074,1.09397 -0.005,0.0385 -0.05,0.11107 -0.0999,0.16112 -0.15733,0.15734 -0.30488,0.79197 -0.30382,1.30708 0.002,0.95787 0.32093,1.84201 0.84941,2.35489 0.30638,0.29732 0.9112,0.62638 1.20984,0.65823 0.10153,0.0108 0.20545,0.0407 0.23111,0.0662 0.0742,0.0742 0.77306,0.0542 1.11447,-0.0319 z"
       id="path24584" />
    <path
       style="fill:none;fill-opacity:1;stroke:none;stroke-width:0.350705;stroke-linejoin:round"
       d="m 90.59193,251.91816 v -16.37794 h 49.09877 49.09876 v 16.37794 16.37795 H 139.6907 90.59193 Z m 23.69118,11.04149 c 2.85269,-0.33869 4.87994,-1.01913 6.69355,-2.24666 0.89578,-0.60629 2.19687,-1.9216 2.83691,-2.8679 0.86882,-1.28454 1.41004,-2.50742 1.75393,-3.96297 0.18836,-0.79731 0.19867,-0.92491 0.19538,-2.41986 -0.004,-1.34283 -0.0258,-1.67776 -0.1523,-2.24585 -0.48665,-2.18443 -1.50107,-4.22908 -2.97465,-5.99573 -2.01577,-2.41666 -3.32982,-3.30912 -5.47012,-3.71512 -0.90281,-0.1712 -3.05063,-0.25941 -4.24818,-0.17444 -3.33768,0.23705 -6.08372,1.45607 -8.16089,3.6228 -1.3597,1.41831 -2.24706,3.02873 -2.73153,4.95728 -0.54173,2.15656 -0.44952,4.23937 0.28574,6.4543 0.73431,2.21206 1.87231,3.90808 4.01208,5.97942 2.79923,2.70969 3.95688,3.08995 7.96001,2.61466 z m 47.71246,-2.39372 c 0.39978,-0.30924 1.38271,-1.53668 2.16101,-2.69855 1.45296,-2.16902 2.72641,-4.78646 3.10884,-6.38987 0.23138,-0.97015 0.10586,-1.61204 -0.29471,-1.50727 -0.34492,0.0902 -0.77384,0.72835 -2.09888,3.1228 -0.4003,0.72332 -0.74745,1.31514 -0.77145,1.31514 -0.0239,0 -0.33937,-0.65495 -0.7008,-1.45544 -0.8643,-1.91418 -1.27849,-2.74336 -1.69519,-3.39363 -0.41983,-0.65518 -0.98007,-1.20171 -1.1995,-1.17015 -0.22974,0.0329 -0.34281,0.31199 -0.29329,0.72356 0.11647,0.96793 0.49857,2.00819 1.50813,4.10597 0.99813,2.07401 1.28191,2.90164 1.2858,3.74984 0.002,0.5646 -0.0202,0.67942 -0.21475,1.08719 -0.11971,0.25075 -0.41133,0.70842 -0.64811,1.01704 -0.44271,0.57701 -0.77838,1.18917 -0.77838,1.41953 0,0.31491 0.27765,0.3474 0.63128,0.0738 z m -10.5094,-1.10969 c 0.45882,-0.12745 0.74428,-0.57068 0.86414,-1.34175 0.0277,-0.17876 0.1217,-0.33052 0.3093,-0.50004 0.40324,-0.36431 0.95762,-0.54196 1.91958,-0.61514 1.5904,-0.12097 2.52438,-0.51473 3.54456,-1.49433 0.89796,-0.86227 1.40588,-1.87345 1.46892,-2.92434 0.0644,-1.07271 -0.29992,-1.92857 -1.20837,-2.83915 -0.96058,-0.96282 -2.11871,-1.44055 -3.50806,-1.44703 -1.18637,-0.005 -2.13368,0.33888 -2.71726,0.98794 -1.04136,1.15826 -1.95233,4.69272 -1.94467,7.54521 0.004,1.44435 0.18887,2.22958 0.60181,2.55439 0.21023,0.16526 0.30441,0.1757 0.67005,0.0742 z m -10.5809,-0.99897 c 0.72554,-0.73587 2.15725,-1.36566 3.69997,-1.62755 1.7688,-0.30028 2.68081,-0.84351 3.25698,-1.93997 0.6738,-1.28225 0.74153,-3.7138 0.13664,-4.90741 -0.79451,-1.56789 -2.57357,-2.01764 -5.25066,-1.32738 -1.89001,0.48731 -2.53742,1.06415 -2.85912,2.54749 -0.18029,0.83134 -0.25946,4.02616 -0.13465,5.437 0.11917,1.34811 0.38236,2.25776 0.65321,2.25776 0.0351,0 0.25908,-0.19797 0.49765,-0.43994 z m -5.38417,-1.61499 c 0.82106,-0.17408 1.28948,-0.5945 1.50055,-1.34692 0.0434,-0.15427 0.1064,-0.70298 0.14006,-1.21924 0.146,-2.23203 -0.26632,-3.64577 -1.3959,-4.78581 -1.0283,-1.03784 -2.25227,-1.39275 -3.60768,-1.04609 -0.85906,0.21972 -1.45922,0.57652 -2.18535,1.29925 -0.4869,0.48462 -0.70286,0.76403 -0.92795,1.20072 -0.85064,1.65013 -0.62196,3.34456 0.61988,4.59292 0.71951,0.72329 1.73432,1.21234 2.88621,1.3909 0.55774,0.0864 2.41001,0.0329 2.97011,-0.0857 z"
       id="path24740" />
    <path
       style="fill:none;fill-opacity:1;stroke:none;stroke-width:0.350705;stroke-linejoin:round"
       d="m 90.59193,251.91816 v -16.37794 h 49.09877 49.09876 v 16.37794 16.37795 H 139.6907 90.59193 Z m 23.69118,11.04149 c 2.85269,-0.33869 4.87994,-1.01913 6.69355,-2.24666 0.89578,-0.60629 2.19687,-1.9216 2.83691,-2.8679 0.86882,-1.28454 1.41004,-2.50742 1.75393,-3.96297 0.18836,-0.79731 0.19867,-0.92491 0.19538,-2.41986 -0.004,-1.34283 -0.0258,-1.67776 -0.1523,-2.24585 -0.48665,-2.18443 -1.50107,-4.22908 -2.97465,-5.99573 -2.01577,-2.41666 -3.32982,-3.30912 -5.47012,-3.71512 -0.90281,-0.1712 -3.05063,-0.25941 -4.24818,-0.17444 -3.33768,0.23705 -6.08372,1.45607 -8.16089,3.6228 -1.3597,1.41831 -2.24706,3.02873 -2.73153,4.95728 -0.54173,2.15656 -0.44952,4.23937 0.28574,6.4543 0.73431,2.21206 1.87231,3.90808 4.01208,5.97942 2.79923,2.70969 3.95688,3.08995 7.96001,2.61466 z m 47.71246,-2.39372 c 0.39978,-0.30924 1.38271,-1.53668 2.16101,-2.69855 1.45296,-2.16902 2.72641,-4.78646 3.10884,-6.38987 0.23138,-0.97015 0.10586,-1.61204 -0.29471,-1.50727 -0.34492,0.0902 -0.77384,0.72835 -2.09888,3.1228 -0.4003,0.72332 -0.74745,1.31514 -0.77145,1.31514 -0.0239,0 -0.33937,-0.65495 -0.7008,-1.45544 -0.8643,-1.91418 -1.27849,-2.74336 -1.69519,-3.39363 -0.41983,-0.65518 -0.98007,-1.20171 -1.1995,-1.17015 -0.22974,0.0329 -0.34281,0.31199 -0.29329,0.72356 0.11647,0.96793 0.49857,2.00819 1.50813,4.10597 0.99813,2.07401 1.28191,2.90164 1.2858,3.74984 0.002,0.5646 -0.0202,0.67942 -0.21475,1.08719 -0.11971,0.25075 -0.41133,0.70842 -0.64811,1.01704 -0.44271,0.57701 -0.77838,1.18917 -0.77838,1.41953 0,0.31491 0.27765,0.3474 0.63128,0.0738 z m -10.5094,-1.10969 c 0.45882,-0.12745 0.74428,-0.57068 0.86414,-1.34175 0.0277,-0.17876 0.1217,-0.33052 0.3093,-0.50004 0.40324,-0.36431 0.95762,-0.54196 1.91958,-0.61514 1.5904,-0.12097 2.52438,-0.51473 3.54456,-1.49433 0.89796,-0.86227 1.40588,-1.87345 1.46892,-2.92434 0.0644,-1.07271 -0.29992,-1.92857 -1.20837,-2.83915 -0.96058,-0.96282 -2.11871,-1.44055 -3.50806,-1.44703 -1.18637,-0.005 -2.13368,0.33888 -2.71726,0.98794 -1.04136,1.15826 -1.95233,4.69272 -1.94467,7.54521 0.004,1.44435 0.18887,2.22958 0.60181,2.55439 0.21023,0.16526 0.30441,0.1757 0.67005,0.0742 z m -10.5809,-0.99897 c 0.72554,-0.73587 2.15725,-1.36566 3.69997,-1.62755 1.7688,-0.30028 2.68081,-0.84351 3.25698,-1.93997 0.6738,-1.28225 0.74153,-3.7138 0.13664,-4.90741 -0.79451,-1.56789 -2.57357,-2.01764 -5.25066,-1.32738 -1.89001,0.48731 -2.53742,1.06415 -2.85912,2.54749 -0.18029,0.83134 -0.25946,4.02616 -0.13465,5.437 0.11917,1.34811 0.38236,2.25776 0.65321,2.25776 0.0351,0 0.25908,-0.19797 0.49765,-0.43994 z m -5.38417,-1.61499 c 0.82106,-0.17408 1.28948,-0.5945 1.50055,-1.34692 0.0434,-0.15427 0.1064,-0.70298 0.14006,-1.21924 0.146,-2.23203 -0.26632,-3.64577 -1.3959,-4.78581 -1.0283,-1.03784 -2.25227,-1.39275 -3.60768,-1.04609 -0.85906,0.21972 -1.45922,0.57652 -2.18535,1.29925 -0.4869,0.48462 -0.70286,0.76403 -0.92795,1.20072 -0.85064,1.65013 -0.62196,3.34456 0.61988,4.59292 0.71951,0.72329 1.73432,1.21234 2.88621,1.3909 0.55774,0.0864 2.41001,0.0329 2.97011,-0.0857 z"
       id="path24816" />
  </g>
</svg>
