<?xml version="1.0" encoding="UTF-8" standalone="no"?>
<!-- Created with Inkscape (http://www.inkscape.org/) -->

<svg
   width="24.117649mm"
   height="23.797754mm"
   viewBox="0 0 24.117649 23.797754"
   version="1.1"
   id="svg5"
   inkscape:version="1.1 (c68e22c387, 2021-05-23)"
   sodipodi:docname="logo-square.png.svg"
   xmlns:inkscape="http://www.inkscape.org/namespaces/inkscape"
   xmlns:sodipodi="http://sodipodi.sourceforge.net/DTD/sodipodi-0.dtd"
   xmlns:xlink="http://www.w3.org/1999/xlink"
   xmlns="http://www.w3.org/2000/svg"
   xmlns:svg="http://www.w3.org/2000/svg">
  <sodipodi:namedview
     id="namedview7"
     pagecolor="#ffffff"
     bordercolor="#999999"
     borderopacity="1"
     inkscape:pageshadow="0"
     inkscape:pageopacity="0"
     inkscape:pagecheckerboard="0"
     inkscape:document-units="mm"
     showgrid="false"
     fit-margin-top="0"
     fit-margin-left="0"
     fit-margin-right="0"
     fit-margin-bottom="0"
     inkscape:zoom="2.6422822"
     inkscape:cx="113.72744"
     inkscape:cy="99.345937"
     inkscape:window-width="1920"
     inkscape:window-height="1015"
     inkscape:window-x="1366"
     inkscape:window-y="40"
     inkscape:window-maximized="1"
     inkscape:current-layer="layer1" />
  <defs
     id="defs2">
    <linearGradient
       inkscape:collect="always"
       id="linearGradient2583">
      <stop
         style="stop-color:#000080;stop-opacity:1"
         offset="0"
         id="stop2579" />
      <stop
         style="stop-color:#00ffff;stop-opacity:1"
         offset="1"
         id="stop2581" />
    </linearGradient>
    <linearGradient
       inkscape:collect="always"
       xlink:href="#linearGradient2583"
       id="linearGradient2585"
       x1="95.78508"
       y1="265.58316"
       x2="104.94846"
       y2="256.66397"
       gradientUnits="userSpaceOnUse" />
  </defs>
  <g
     inkscape:label="Layer 1"
     inkscape:groupmode="layer"
     id="layer1"
     transform="translate(-101.71336,-239.31977)">
    <g
       id="g129"
       transform="matrix(2.4033625,0,0,2.4033625,-127.02961,-376.47272)">
      <path
         style="fill:none;stroke-width:0.524198"
         d="m 90.534187,261.46321 v -6.81459 h 20.443803 20.44378 v 6.81459 6.81461 H 110.97799 90.534187 Z m 13.497323,2.8863 c 1.61886,-1.88205 1.54877,-4.46473 -0.17682,-6.51547 -1.12567,-1.33778 -1.73922,-1.61281 -3.59791,-1.61281 -4.738776,0 -6.788981,5.11105 -3.40688,8.49314 1.416471,1.41648 1.847897,1.56437 3.79963,1.3026 1.48188,-0.19878 2.58761,-0.74394 3.38199,-1.66746 z m -4.900497,-2.04771 c -0.423023,-1.10238 0.744576,-3.45957 1.713647,-3.45957 0.38375,0 0.71712,0.17696 0.74083,0.39313 0.0237,0.21624 0.15372,1.07172 0.28892,1.90109 0.18794,1.15288 0.0694,1.44023 -0.50343,1.22042 -0.41208,-0.15806 -1.00615,-0.0306 -1.32014,0.28337 -0.411719,0.41171 -0.668176,0.31738 -0.919827,-0.33844 z m 1.646627,-1.39765 c 0.56418,-0.91287 -0.0784,-1.10621 -0.797345,-0.23991 -0.413462,0.49821 -0.453228,0.79897 -0.105636,0.79897 0.306601,0 0.712931,-0.25158 0.902981,-0.55906 z m 20.69007,2.52482 c 0.5713,-0.93701 1.03127,-2.05748 1.02213,-2.48995 -0.009,-0.49158 -0.26793,-0.33347 -0.68711,0.42188 l -0.6705,1.20818 -0.64106,-1.40697 c -0.35257,-0.77383 -0.76755,-1.28048 -0.92218,-1.12584 -0.15463,0.15446 0.10496,1.02767 0.57676,1.94007 0.67002,1.29567 0.72183,1.82293 0.23656,2.40764 -0.34171,0.41176 -0.47102,0.74864 -0.28731,0.74864 0.18366,0 0.80142,-0.76666 1.37271,-1.70365 z m -8.39294,0.0529 c 0.91062,-0.12781 1.36404,-0.56222 1.48595,-1.42378 0.23388,-1.6531 -0.58799,-2.37486 -2.23387,-1.96177 -1.18497,0.2974 -1.34791,0.60804 -1.34085,2.55641 0.004,1.21983 0.18128,1.94679 0.39317,1.61546 0.21181,-0.33133 0.97483,-0.68514 1.6956,-0.78632 z m -1.38168,-1.22877 c -0.18148,-0.47315 -0.0787,-1.11163 0.22844,-1.41885 0.79869,-0.79868 2.31194,-0.0688 2.10332,1.01458 -0.23237,1.20665 -1.9121,1.49787 -2.33176,0.40427 z m 4.52688,1.8312 c 0,-0.28832 0.44291,-0.52421 0.98421,-0.52421 1.26373,0 2.36797,-1.32553 1.96942,-2.36411 -0.41742,-1.08779 -1.86988,-1.58433 -2.84155,-0.97141 -0.85324,0.53821 -1.36436,4.38391 -0.58265,4.38391 0.25881,0 0.47057,-0.23588 0.47057,-0.52418 z m 0,-2.06587 c 0,-1.32163 0.89879,-1.85607 1.82651,-1.08614 0.95444,0.79213 0.4344,2.1036 -0.8342,2.1036 -0.63277,0 -0.99231,-0.36863 -0.99231,-1.01746 z m -6.29039,0.004 c 0,-1.85204 -1.74979,-2.70379 -2.99543,-1.45817 -1.24565,1.24565 -0.39387,2.99544 1.45816,2.99544 1.35075,0 1.53727,-0.18643 1.53727,-1.53727 z m -2.95429,0.2303 c -0.18156,-0.47319 -0.0788,-1.11165 0.22845,-1.41887 0.79868,-0.79868 2.31194,-0.0688 2.10331,1.01458 -0.23239,1.20664 -1.91211,1.49786 -2.33176,0.40427 z"
         id="path131" />
      <path
         style="fill:#ffffff;fill-opacity:1;stroke:none;stroke-width:0.145923;stroke-linejoin:round"
         d="M 99.363562,262.74005 C 99.16,262.53533 99.050893,262.089 99.07998,261.57995 c 0.03878,-0.67848 0.264072,-1.3267 0.635043,-1.82712 0.588577,-0.79395 1.527787,-1.18305 1.783907,-0.73904 0.0316,0.0547 0.0798,0.28168 0.12394,0.58368 0.0397,0.27174 0.12517,0.82896 0.18985,1.23828 0.19172,1.21332 0.15624,1.57597 -0.15422,1.57597 -0.0395,0 -0.16184,-0.0286 -0.27188,-0.0637 -0.47193,-0.15032 -1.00205,-0.0348 -1.36561,0.29768 -0.159338,0.14564 -0.281104,0.20376 -0.427004,0.20376 -0.10173,0 -0.139409,-0.018 -0.230449,-0.10945 z m 0.900598,-1.37969 c 0.33118,-0.1766 0.64293,-0.56451 0.70982,-0.88341 0.0298,-0.14222 0.0278,-0.17895 -0.0148,-0.26829 -0.12074,-0.25322 -0.36587,-0.17444 -0.79495,0.25549 -0.489995,0.49095 -0.66111,0.8691 -0.443517,0.98012 0.108733,0.0555 0.352597,0.018 0.543487,-0.0839 z"
         id="path33389" />
    </g>
    <path
       style="fill:none;fill-opacity:1;stroke:none;stroke-width:0.350705;stroke-linejoin:round"
       d="m 90.59193,251.91816 v -16.37794 h 49.09877 49.09876 v 16.37794 16.37795 H 139.6907 90.59193 Z m 23.69118,11.04149 c 2.85269,-0.33869 4.87994,-1.01913 6.69355,-2.24666 0.89578,-0.60629 2.19687,-1.9216 2.83691,-2.8679 0.86882,-1.28454 1.41004,-2.50742 1.75393,-3.96297 0.18836,-0.79731 0.19867,-0.92491 0.19538,-2.41986 -0.004,-1.34283 -0.0258,-1.67776 -0.1523,-2.24585 -0.48665,-2.18443 -1.50107,-4.22908 -2.97465,-5.99573 -2.01577,-2.41666 -3.32982,-3.30912 -5.47012,-3.71512 -0.90281,-0.1712 -3.05063,-0.25941 -4.24818,-0.17444 -3.33768,0.23705 -6.08372,1.45607 -8.16089,3.6228 -1.3597,1.41831 -2.24706,3.02873 -2.73153,4.95728 -0.54173,2.15656 -0.44952,4.23937 0.28574,6.4543 0.73431,2.21206 1.87231,3.90808 4.01208,5.97942 2.79923,2.70969 3.95688,3.08995 7.96001,2.61466 z m 47.71246,-2.39372 c 0.39978,-0.30924 1.38271,-1.53668 2.16101,-2.69855 1.45296,-2.16902 2.72641,-4.78646 3.10884,-6.38987 0.23138,-0.97015 0.10586,-1.61204 -0.29471,-1.50727 -0.34492,0.0902 -0.77384,0.72835 -2.09888,3.1228 -0.4003,0.72332 -0.74745,1.31514 -0.77145,1.31514 -0.0239,0 -0.33937,-0.65495 -0.7008,-1.45544 -0.8643,-1.91418 -1.27849,-2.74336 -1.69519,-3.39363 -0.41983,-0.65518 -0.98007,-1.20171 -1.1995,-1.17015 -0.22974,0.0329 -0.34281,0.31199 -0.29329,0.72356 0.11647,0.96793 0.49857,2.00819 1.50813,4.10597 0.99813,2.07401 1.28191,2.90164 1.2858,3.74984 0.002,0.5646 -0.0202,0.67942 -0.21475,1.08719 -0.11971,0.25075 -0.41133,0.70842 -0.64811,1.01704 -0.44271,0.57701 -0.77838,1.18917 -0.77838,1.41953 0,0.31491 0.27765,0.3474 0.63128,0.0738 z m -10.5094,-1.10969 c 0.45882,-0.12745 0.74428,-0.57068 0.86414,-1.34175 0.0277,-0.17876 0.1217,-0.33052 0.3093,-0.50004 0.40324,-0.36431 0.95762,-0.54196 1.91958,-0.61514 1.5904,-0.12097 2.52438,-0.51473 3.54456,-1.49433 0.89796,-0.86227 1.40588,-1.87345 1.46892,-2.92434 0.0644,-1.07271 -0.29992,-1.92857 -1.20837,-2.83915 -0.96058,-0.96282 -2.11871,-1.44055 -3.50806,-1.44703 -1.18637,-0.005 -2.13368,0.33888 -2.71726,0.98794 -1.04136,1.15826 -1.95233,4.69272 -1.94467,7.54521 0.004,1.44435 0.18887,2.22958 0.60181,2.55439 0.21023,0.16526 0.30441,0.1757 0.67005,0.0742 z m -10.5809,-0.99897 c 0.72554,-0.73587 2.15725,-1.36566 3.69997,-1.62755 1.7688,-0.30028 2.68081,-0.84351 3.25698,-1.93997 0.6738,-1.28225 0.74153,-3.7138 0.13664,-4.90741 -0.79451,-1.56789 -2.57357,-2.01764 -5.25066,-1.32738 -1.89001,0.48731 -2.53742,1.06415 -2.85912,2.54749 -0.18029,0.83134 -0.25946,4.02616 -0.13465,5.437 0.11917,1.34811 0.38236,2.25776 0.65321,2.25776 0.0351,0 0.25908,-0.19797 0.49765,-0.43994 z m -5.38417,-1.61499 c 0.82106,-0.17408 1.28948,-0.5945 1.50055,-1.34692 0.0434,-0.15427 0.1064,-0.70298 0.14006,-1.21924 0.146,-2.23203 -0.26632,-3.64577 -1.3959,-4.78581 -1.0283,-1.03784 -2.25227,-1.39275 -3.60768,-1.04609 -0.85906,0.21972 -1.45922,0.57652 -2.18535,1.29925 -0.4869,0.48462 -0.70286,0.76403 -0.92795,1.20072 -0.85064,1.65013 -0.62196,3.34456 0.61988,4.59292 0.71951,0.72329 1.73432,1.21234 2.88621,1.3909 0.55774,0.0864 2.41001,0.0329 2.97011,-0.0857 z"
       id="path24740" />
    <path
       style="fill:none;fill-opacity:1;stroke:none;stroke-width:0.350705;stroke-linejoin:round"
       d="m 90.59193,251.91816 v -16.37794 h 49.09877 49.09876 v 16.37794 16.37795 H 139.6907 90.59193 Z m 23.69118,11.04149 c 2.85269,-0.33869 4.87994,-1.01913 6.69355,-2.24666 0.89578,-0.60629 2.19687,-1.9216 2.83691,-2.8679 0.86882,-1.28454 1.41004,-2.50742 1.75393,-3.96297 0.18836,-0.79731 0.19867,-0.92491 0.19538,-2.41986 -0.004,-1.34283 -0.0258,-1.67776 -0.1523,-2.24585 -0.48665,-2.18443 -1.50107,-4.22908 -2.97465,-5.99573 -2.01577,-2.41666 -3.32982,-3.30912 -5.47012,-3.71512 -0.90281,-0.1712 -3.05063,-0.25941 -4.24818,-0.17444 -3.33768,0.23705 -6.08372,1.45607 -8.16089,3.6228 -1.3597,1.41831 -2.24706,3.02873 -2.73153,4.95728 -0.54173,2.15656 -0.44952,4.23937 0.28574,6.4543 0.73431,2.21206 1.87231,3.90808 4.01208,5.97942 2.79923,2.70969 3.95688,3.08995 7.96001,2.61466 z m 47.71246,-2.39372 c 0.39978,-0.30924 1.38271,-1.53668 2.16101,-2.69855 1.45296,-2.16902 2.72641,-4.78646 3.10884,-6.38987 0.23138,-0.97015 0.10586,-1.61204 -0.29471,-1.50727 -0.34492,0.0902 -0.77384,0.72835 -2.09888,3.1228 -0.4003,0.72332 -0.74745,1.31514 -0.77145,1.31514 -0.0239,0 -0.33937,-0.65495 -0.7008,-1.45544 -0.8643,-1.91418 -1.27849,-2.74336 -1.69519,-3.39363 -0.41983,-0.65518 -0.98007,-1.20171 -1.1995,-1.17015 -0.22974,0.0329 -0.34281,0.31199 -0.29329,0.72356 0.11647,0.96793 0.49857,2.00819 1.50813,4.10597 0.99813,2.07401 1.28191,2.90164 1.2858,3.74984 0.002,0.5646 -0.0202,0.67942 -0.21475,1.08719 -0.11971,0.25075 -0.41133,0.70842 -0.64811,1.01704 -0.44271,0.57701 -0.77838,1.18917 -0.77838,1.41953 0,0.31491 0.27765,0.3474 0.63128,0.0738 z m -10.5094,-1.10969 c 0.45882,-0.12745 0.74428,-0.57068 0.86414,-1.34175 0.0277,-0.17876 0.1217,-0.33052 0.3093,-0.50004 0.40324,-0.36431 0.95762,-0.54196 1.91958,-0.61514 1.5904,-0.12097 2.52438,-0.51473 3.54456,-1.49433 0.89796,-0.86227 1.40588,-1.87345 1.46892,-2.92434 0.0644,-1.07271 -0.29992,-1.92857 -1.20837,-2.83915 -0.96058,-0.96282 -2.11871,-1.44055 -3.50806,-1.44703 -1.18637,-0.005 -2.13368,0.33888 -2.71726,0.98794 -1.04136,1.15826 -1.95233,4.69272 -1.94467,7.54521 0.004,1.44435 0.18887,2.22958 0.60181,2.55439 0.21023,0.16526 0.30441,0.1757 0.67005,0.0742 z m -10.5809,-0.99897 c 0.72554,-0.73587 2.15725,-1.36566 3.69997,-1.62755 1.7688,-0.30028 2.68081,-0.84351 3.25698,-1.93997 0.6738,-1.28225 0.74153,-3.7138 0.13664,-4.90741 -0.79451,-1.56789 -2.57357,-2.01764 -5.25066,-1.32738 -1.89001,0.48731 -2.53742,1.06415 -2.85912,2.54749 -0.18029,0.83134 -0.25946,4.02616 -0.13465,5.437 0.11917,1.34811 0.38236,2.25776 0.65321,2.25776 0.0351,0 0.25908,-0.19797 0.49765,-0.43994 z m -5.38417,-1.61499 c 0.82106,-0.17408 1.28948,-0.5945 1.50055,-1.34692 0.0434,-0.15427 0.1064,-0.70298 0.14006,-1.21924 0.146,-2.23203 -0.26632,-3.64577 -1.3959,-4.78581 -1.0283,-1.03784 -2.25227,-1.39275 -3.60768,-1.04609 -0.85906,0.21972 -1.45922,0.57652 -2.18535,1.29925 -0.4869,0.48462 -0.70286,0.76403 -0.92795,1.20072 -0.85064,1.65013 -0.62196,3.34456 0.61988,4.59292 0.71951,0.72329 1.73432,1.21234 2.88621,1.3909 0.55774,0.0864 2.41001,0.0329 2.97011,-0.0857 z"
       id="path24816" />
    <path
       style="fill:url(#linearGradient2585);stroke-width:0.524198;fill-opacity:1"
       d="m 96.849887,264.71437 c -3.3821,-3.38209 -1.331895,-8.49314 3.406883,-8.49314 1.85869,0 2.47224,0.27503 3.59791,1.61281 2.77538,3.29834 1.08767,7.60711 -3.20516,8.18293 -1.951735,0.26177 -2.383161,0.11395 -3.799633,-1.3026 z m 4.521093,-2.3575 c 0.57283,0.21981 0.69137,-0.0675 0.50343,-1.22042 -0.1352,-0.82937 -0.26522,-1.68485 -0.28892,-1.90109 -0.097,-0.8843 -1.48449,-0.3073 -2.120983,0.88201 -0.789284,1.47477 -0.332223,3.44143 0.586333,2.52287 0.31399,-0.31399 0.90806,-0.44152 1.32014,-0.28337 z m -1.390685,-1.69263 c 0.364695,-0.43941 0.771035,-0.69101 0.902975,-0.55906 0.36353,0.36354 -0.37509,1.35803 -1.008611,1.35803 -0.347592,0 -0.307826,-0.30076 0.105636,-0.79897 z"
       id="path133"
       transform="matrix(2.4033625,0,0,2.4033625,-127.02961,-376.47273)"
       sodipodi:nodetypes="csccccsccscccsc" />
  </g>
</svg>
